<svg width="65" height="59" viewBox="0 0 65 59" fill="none" xmlns="http://www.w3.org/2000/svg">
<path d="M64.348 29.3116H59.7981C59.4406 29.3116 59.1481 29.5754 59.1481 29.8979V48.3472C59.1481 51.1086 56.9096 53.3472 54.1481 53.3472H10.8498C8.08839 53.3472 5.84982 51.1086 5.84982 48.3472V10.2761C5.84982 7.51468 8.08839 5.27609 10.8498 5.27609H31.849C32.2065 5.27609 32.499 5.01229 32.499 4.68986V0.586233C32.499 0.263805 32.2065 0 31.849 0H2.59992C1.16184 0 0 1.04789 0 2.34493V56.2783C0 57.5754 1.16184 58.6233 2.59992 58.6233H62.398C63.8361 58.6233 64.998 57.5754 64.998 56.2783V29.8979C64.998 29.5754 64.7055 29.3116 64.348 29.3116Z" fill="#761932"/>
<path d="M19.8161 30.9897L19.6617 39.7026C19.6536 40.3548 20.2386 40.8897 20.9617 40.8897H20.9942L30.5814 40.6772C30.7439 40.6699 30.9064 40.6113 31.0201 40.5087L64.8109 10.0979C65.0628 9.87069 65.0628 9.49697 64.8109 9.2698L54.7119 0.168542C54.5819 0.0512956 54.4194 0 54.2487 0C54.0781 0 53.9156 0.0586235 53.7856 0.168542L20.0029 30.5794C19.8856 30.6901 19.8189 30.8366 19.8161 30.9897ZM24.9585 33.7231C24.9692 33.0828 25.2457 32.4758 25.7217 32.0474L52.6054 7.85412C53.5397 7.01339 54.9578 7.01339 55.892 7.85413C56.9764 8.83 56.9764 10.5303 55.892 11.5062L29.3581 35.3847C28.8893 35.8066 28.2846 36.0462 27.654 36.0599L27.3144 36.0672C26.0063 36.0956 24.9366 35.0313 24.9585 33.7231Z" fill="#761932"/>
</svg>
