<svg width="65" height="65" viewBox="0 0 65 65" fill="none" xmlns="http://www.w3.org/2000/svg">
<path d="M47.9194 32.5002C47.915 31.092 47.8256 29.6863 47.6521 28.2907C47.458 26.7297 48.6264 25.278 50.1994 25.278H51.4689C52.5365 25.278 53.2863 24.2289 52.8472 23.2558C52.6049 22.719 52.0618 22.3891 51.4729 22.3891H49.6956C47.7307 22.3891 46.0251 21.0878 45.2893 19.2659C44.2724 16.7481 42.9697 14.3518 41.4047 12.1251C41.2503 11.9054 41.0358 11.7342 40.7864 11.6347C39.4815 11.1143 38.5249 12.687 39.3329 13.8362C40.3209 15.2417 41.1949 16.724 41.9464 18.2689C42.889 20.2065 41.37 22.3169 39.2153 22.3169H37.9424C35.6845 22.3169 33.8541 20.4865 33.8541 18.2286V11.4655C33.8541 10.7176 33.2478 10.1113 32.5 10.1113C31.7521 10.1113 31.1458 10.7176 31.1458 11.4655V18.2468C31.1458 20.5046 29.3155 22.3349 27.0577 22.3349H25.7996C23.6375 22.3349 22.1135 20.2173 23.0603 18.2736C23.8172 16.7198 24.698 15.2293 25.6941 13.8169C26.5012 12.6725 25.5506 11.1033 24.2484 11.6184C23.9998 11.7168 23.7857 11.8865 23.6311 12.1046C22.0627 14.3177 20.7541 16.7001 19.729 19.2046C18.9811 21.0318 17.2658 22.3349 15.2915 22.3349H13.5103C12.9095 22.3349 12.3553 22.6715 12.1087 23.2193C11.6624 24.2109 12.4272 25.278 13.5146 25.278H14.7705C16.359 25.278 17.5388 26.744 17.3441 28.3205C17.173 29.7063 17.0849 31.102 17.0805 32.5002C17.0836 34.1605 17.2032 35.8173 17.4377 37.4585C17.6537 38.9698 16.5267 40.3905 15.0001 40.3905H13.8795C12.7699 40.3905 12.0036 41.4962 12.4925 42.4924C12.7497 43.0164 13.291 43.3335 13.8748 43.3335H15.5437C17.4595 43.3335 19.1297 44.5841 19.8783 46.3475C20.8206 48.5668 21.9914 50.6848 23.3733 52.6667C23.5311 52.8931 23.7505 53.0701 24.0062 53.174C25.3491 53.72 26.3431 52.1047 25.5216 50.9103C24.7017 49.7182 23.9626 48.4723 23.3095 47.181C22.3869 45.357 23.809 43.3335 25.853 43.3335H27.2275C29.4015 43.3335 31.1638 45.0959 31.1638 47.2699V53.4266C31.1638 54.1745 31.7701 54.7808 32.518 54.7808C33.2659 54.7808 33.8722 54.1745 33.8722 53.4266V47.2526C33.8722 45.0882 35.6268 43.3335 37.7913 43.3335H39.173C41.2034 43.3335 42.6153 45.3445 41.6985 47.1561C41.0451 48.4473 40.3057 49.6931 39.4854 50.885C38.6635 52.0794 39.6625 53.6929 41.0018 53.1376C41.2523 53.0337 41.4673 52.8593 41.6227 52.6371C43.0067 50.6575 44.1799 48.5415 45.1247 46.324C45.8706 44.5735 47.5303 43.3335 49.433 43.3335H51.0955C51.6647 43.3335 52.1929 43.0261 52.4473 42.517C52.936 41.5387 52.1845 40.4447 51.091 40.4447H49.937C48.411 40.4447 47.2887 39.0172 47.518 37.5084C47.7696 35.8518 47.904 34.1782 47.9194 32.5002ZM31.1458 35.3905C31.1458 38.1519 28.9072 40.3905 26.1458 40.3905H24.6639C22.3797 40.3905 20.3441 38.8457 20.0505 36.5805C19.7303 34.1105 19.7002 31.6115 19.9606 29.1348C20.2036 26.8234 22.2638 25.2238 24.5879 25.2238H26.1458C28.9072 25.2238 31.1458 27.4624 31.1458 30.2238V35.3905ZM44.9131 36.5223C44.6421 38.8139 42.5931 40.3905 40.2855 40.3905H38.8541C36.0927 40.3905 33.8541 38.1519 33.8541 35.3905V30.278C33.8541 27.5166 36.0927 25.278 38.8541 25.278H40.3557C42.7055 25.278 44.7799 26.9129 44.9978 29.2527C45.0982 30.3314 45.1454 31.4152 45.1388 32.5002C45.1463 33.8455 45.0707 35.1887 44.9131 36.5223Z" fill="#761932"/>
<path d="M32.5002 3.61108C26.7865 3.61108 21.2012 5.30539 16.4504 8.47974C11.6997 11.6541 7.99691 16.1659 5.81038 21.4447C3.62385 26.7234 3.05175 32.532 4.16643 38.1359C5.28112 43.7398 8.03252 48.8873 12.0727 52.9275C16.1129 56.9677 21.2604 59.7191 26.8643 60.8338C32.4682 61.9485 38.2768 61.3764 43.5555 59.1898C48.8343 57.0033 53.3461 53.3005 56.5205 48.5498C59.6948 43.799 61.3891 38.2137 61.3891 32.5C61.3891 24.8382 58.3455 17.4902 52.9278 12.0724C47.51 6.65473 40.162 3.61108 32.5002 3.61108ZM32.5002 57.7777C27.5008 57.7777 22.6136 56.2952 18.4566 53.5177C14.2997 50.7401 11.0598 46.7923 9.14661 42.1734C7.23339 37.5545 6.73281 32.4719 7.70816 27.5685C8.68351 22.6651 11.091 18.161 14.6261 14.6259C18.1613 11.0907 22.6654 8.68325 27.5688 7.7079C32.4722 6.73255 37.5547 7.23314 42.1736 9.14635C46.7925 11.0596 50.7404 14.2995 53.5179 18.4564C56.2955 22.6133 57.778 27.5005 57.778 32.5C57.778 39.2041 55.1148 45.6336 50.3743 50.3741C45.6338 55.1146 39.2043 57.7777 32.5002 57.7777Z" fill="#761932"/>
</svg>
