<svg width="65" height="48" viewBox="0 0 65 48" fill="none" xmlns="http://www.w3.org/2000/svg">
<path d="M59.9219 0C60.6201 0 61.276 0.136364 61.8896 0.409091C62.5033 0.681818 63.0428 1.07955 63.5083 1.60227C63.9738 2.125 64.3335 2.70455 64.5874 3.34091C64.8413 3.97727 64.9788 4.68182 65 5.45455V42.5455C65 43.2955 64.873 44 64.6191 44.6591C64.3652 45.3182 63.995 45.8977 63.5083 46.3977C63.0216 46.8977 62.4821 47.2841 61.8896 47.5568C61.2972 47.8295 60.6413 47.9773 59.9219 48H5.07812C4.37988 48 3.72396 47.8636 3.11035 47.5909C2.49674 47.3182 1.95719 46.9205 1.4917 46.3977C1.0262 45.875 0.666504 45.2955 0.412598 44.6591C0.158691 44.0227 0.0211589 43.3182 0 42.5455V5.45455C0 4.70455 0.126953 4 0.380859 3.34091C0.634766 2.68182 1.00505 2.10227 1.4917 1.60227C1.97835 1.10227 2.5179 0.715909 3.11035 0.443182C3.7028 0.170455 4.35872 0.0227273 5.07812 0H59.9219ZM5.07812 4.36364C4.7819 4.36364 4.53857 4.46591 4.34814 4.67045C4.15771 4.875 4.0625 5.13636 4.0625 5.45455V8.09091C4.0625 10.8523 6.30108 13.0909 9.0625 13.0909H55.9375C58.6989 13.0909 60.9375 10.8523 60.9375 8.09091V5.45455C60.9375 5.13636 60.8423 4.875 60.6519 4.67045C60.4614 4.46591 60.2181 4.36364 59.9219 4.36364H5.07812ZM59.9219 43.6364C60.2181 43.6364 60.4614 43.5341 60.6519 43.3295C60.8423 43.125 60.9375 42.8636 60.9375 42.5455V22.4546C60.9375 19.6931 58.6989 17.4545 55.9375 17.4545H9.0625C6.30108 17.4545 4.0625 19.6931 4.0625 22.4545V42.5455C4.0625 42.8636 4.15771 43.125 4.34814 43.3295C4.53857 43.5341 4.7819 43.6364 5.07812 43.6364H59.9219ZM44.6875 32.7273C44.6875 31.5223 45.6643 30.5455 46.8693 30.5455H50.6307C51.8357 30.5455 52.8125 31.5223 52.8125 32.7273C52.8125 33.9323 51.8357 34.9091 50.6307 34.9091H46.8693C45.6643 34.9091 44.6875 33.9323 44.6875 32.7273Z" fill="#761932"/>
</svg>
