<svg width="68" height="53" viewBox="0 0 68 53" fill="none" xmlns="http://www.w3.org/2000/svg">
<path d="M6.8 0C4.99653 0 3.26692 0.61107 1.99167 1.69878C0.716427 2.78649 0 4.26174 0 5.8L0 47.1635C0 51.4296 4.99897 53.7362 8.24473 50.9677L12.198 47.5958C13.1029 46.824 14.2533 46.4 15.4427 46.4H61.2C63.0035 46.4 64.7331 45.7889 66.0083 44.7012C67.2836 43.6135 68 42.1383 68 40.6V5.8C68 4.26174 67.2836 2.78649 66.0083 1.69878C64.7331 0.61107 63.0035 0 61.2 0L6.8 0ZM17 26.274C16.0625 26.2855 15.1422 26.0589 14.3561 25.623C13.57 25.1872 12.9537 24.5617 12.5856 23.8262C12.2174 23.0907 12.1141 22.2785 12.2887 21.4927C12.4633 20.707 12.9079 19.9834 13.5661 19.4138C14.2242 18.8442 15.0661 18.4545 15.9847 18.2942C16.9033 18.1339 17.857 18.2103 18.7245 18.5136C19.592 18.8169 20.3342 19.3335 20.8566 19.9976C21.3789 20.6617 21.6579 21.4433 21.658 22.243C21.6581 23.3021 21.1696 24.3187 20.2979 25.073C19.4263 25.8274 18.2416 26.2588 17 26.274ZM34.544 26.274C33.6093 26.274 32.6956 26.0376 31.9184 25.5947C31.1412 25.1517 30.5354 24.5222 30.1777 23.7856C29.82 23.049 29.7265 22.2385 29.9088 21.4566C30.0912 20.6747 30.5413 19.9564 31.2022 19.3927C31.8632 18.8289 32.7052 18.445 33.622 18.2895C34.5388 18.1339 35.489 18.2137 36.3526 18.5188C37.2161 18.8239 37.9542 19.3406 38.4735 20.0035C38.9928 20.6664 39.27 21.4457 39.27 22.243C39.2701 22.7798 39.1446 23.3111 38.9008 23.806C38.6569 24.3008 38.2996 24.7491 37.8499 25.1246C37.4002 25.5 36.8671 25.7951 36.2819 25.9925C35.6967 26.1899 35.0712 26.2856 34.442 26.274H34.544ZM52.088 26.274C51.1533 26.274 50.2396 26.0376 49.4624 25.5947C48.6852 25.1517 48.0794 24.5222 47.7217 23.7856C47.364 23.049 47.2705 22.2385 47.4528 21.4566C47.6352 20.6747 48.0853 19.9564 48.7462 19.3927C49.4072 18.8289 50.2492 18.445 51.166 18.2895C52.0828 18.1339 53.033 18.2137 53.8966 18.5188C54.7601 18.8239 55.4982 19.3406 56.0175 20.0035C56.5368 20.6664 56.814 21.4457 56.814 22.243C56.8141 22.7798 56.6886 23.3111 56.4448 23.806C56.2009 24.3008 55.8436 24.7491 55.3939 25.1246C54.9442 25.5 54.4111 25.7951 53.8259 25.9925C53.2407 26.1899 52.6152 26.2856 51.986 26.274H52.088Z" fill="#761932"/>
</svg>
